<svg width="48" height="40" viewBox="0 0 48 40" fill="none" xmlns="http://www.w3.org/2000/svg">
<path d="M47.147 5.07771C46.525 4.34253 45.6541 3.89347 44.6944 3.81331L10.8923 0.990884C9.93249 0.910728 8.99931 1.20913 8.26403 1.83097C7.53175 2.45038 7.08335 3.31691 7.00066 4.27193L6.3206 10.6522H3.60514C1.61727 10.6522 0 12.2694 0 14.2573V35.4168C0 37.4047 1.61727 39.0219 3.60514 39.0219H37.525C39.5129 39.0219 41.1302 37.4047 41.1302 35.4168V31.9843L42.3339 32.0848C42.4354 32.0933 42.5364 32.0975 42.6365 32.0975C44.4897 32.0975 46.0696 30.6716 46.2265 28.7922L47.9872 7.70608C48.0673 6.74636 47.7689 5.81299 47.147 5.07771ZM3.60514 12.5272H37.525C38.479 12.5272 39.2552 13.3033 39.2552 14.2573V16.1854H1.87499V14.2573C1.87499 13.3033 2.65115 12.5272 3.60514 12.5272ZM1.87499 18.0604H39.2552V21.9499H1.87499V18.0604ZM37.525 37.1469H3.60514C2.65115 37.1469 1.87499 36.3708 1.87499 35.4168V23.8249H39.2552V35.4168C39.2552 36.3708 38.479 37.1469 37.525 37.1469ZM46.1187 7.54998L44.358 28.6361C44.2786 29.5868 43.4404 30.296 42.4899 30.2163L41.1302 30.1028V14.2573C41.1302 12.2694 39.5129 10.6522 37.525 10.6522H8.20628L8.86618 4.46093C8.86693 4.45381 8.86759 4.44678 8.86815 4.43956C8.94756 3.48884 9.78531 2.77972 10.7363 2.85941L44.5385 5.68183C44.9991 5.72027 45.4171 5.9358 45.7155 6.28868C46.0139 6.64155 46.1572 7.08939 46.1187 7.54998Z" fill="#2F9356"/>
<path d="M35.3318 26.6123H26.3091C25.7913 26.6123 25.3716 27.032 25.3716 27.5498V33.4362C25.3716 33.954 25.7913 34.3737 26.3091 34.3737H35.3318C35.8495 34.3737 36.2693 33.954 36.2693 33.4362V27.5498C36.2693 27.032 35.8495 26.6123 35.3318 26.6123ZM34.3943 32.4987H27.2466V28.4873H34.3943V32.4987Z" fill="#2F9356"/>
</svg>
