<svg width="62" height="62" viewBox="0 0 62 62" fill="none" xmlns="http://www.w3.org/2000/svg">
<path d="M60.0625 38.75C58.993 38.75 58.125 39.618 58.125 40.6875V54.25H3.875V31H25.1875C26.257 31 27.125 30.132 27.125 29.0625C27.125 27.993 26.257 27.125 25.1875 27.125H3.875V19.375H25.1875C26.257 19.375 27.125 18.507 27.125 17.4375C27.125 16.368 26.257 15.5 25.1875 15.5H3.875C1.736 15.5 0 17.236 0 19.375V54.25C0 56.389 1.736 58.125 3.875 58.125H58.125C60.264 58.125 62 56.389 62 54.25V40.6875C62 39.618 61.132 38.75 60.0625 38.75Z" fill="#2F9356"/>
<path d="M17.4375 38.75H9.6875C8.618 38.75 7.75 39.618 7.75 40.6875C7.75 41.757 8.618 42.625 9.6875 42.625H17.4375C18.507 42.625 19.375 41.757 19.375 40.6875C19.375 39.618 18.507 38.75 17.4375 38.75Z" fill="#2F9356"/>
<path d="M60.8259 9.84153L47.2634 4.02903C46.7712 3.82366 46.2249 3.82366 45.7327 4.02903L32.1703 9.84153C31.4611 10.1477 31 10.849 31 11.624V19.374C31 30.0342 34.9409 36.2652 45.5351 42.3683C45.8335 42.5388 46.1667 42.624 46.5 42.624C46.8333 42.624 47.1665 42.5388 47.4649 42.3683C58.0591 36.2807 62 30.0497 62 19.374V11.624C62 10.849 61.5389 10.1477 60.8259 9.84153ZM58.125 19.374C58.125 28.3214 55.1645 33.2465 46.5 38.439C37.8355 33.2349 34.875 28.3098 34.875 19.374V12.9028L46.5 7.91953L58.125 12.9028V19.374Z" fill="#2F9356"/>
<path d="M53.5254 15.9219C52.6922 15.2631 51.4755 15.391 50.8012 16.2241L44.7097 23.8424L42.2995 20.2386C41.6989 19.3474 40.4937 19.111 39.6141 19.7C38.7267 20.2929 38.4826 21.498 39.0755 22.3854L42.9505 28.1979C43.2954 28.7132 43.8611 29.031 44.4811 29.062C44.5082 29.062 44.5392 29.062 44.5625 29.062C45.1476 29.062 45.7056 28.7985 46.0776 28.3335L53.8276 18.646C54.4941 17.809 54.3624 16.5923 53.5254 15.9219Z" fill="#2F9356"/>
</svg>
