<svg width="20" height="22" viewBox="0 0 20 22" fill="none" xmlns="http://www.w3.org/2000/svg">
<path d="M4.24594 11C4.24594 11.4674 3.86722 11.8462 3.39979 11.8462H1.70748C1.24006 11.8462 0.861328 11.4674 0.861328 11C0.861328 10.5326 1.24006 10.1538 1.70748 10.1538H3.39979C3.86726 10.1538 4.24594 10.5326 4.24594 11ZM4.24594 5.58462C4.24594 5.11719 3.86722 4.73846 3.39979 4.73846H1.70748C1.24006 4.73846 0.861328 5.11719 0.861328 5.58462C0.861328 6.05204 1.24006 6.43077 1.70748 6.43077H3.39979C3.86726 6.43077 4.24594 6.05204 4.24594 5.58462ZM4.24594 16.4154C4.24594 15.9479 3.86722 15.5693 3.39979 15.5693H1.70748C1.24006 15.5693 0.861328 15.9479 0.861328 16.4154C0.861328 16.8829 1.24006 17.2616 1.70748 17.2616H3.39979C3.86726 17.2616 4.24594 16.8828 4.24594 16.4154ZM19.1383 2.70769V19.2923C19.1383 20.7877 17.9259 22 16.4307 22H4.5845C3.0892 22 1.87681 20.7877 1.87681 19.2923V17.9385H3.39989C4.23962 17.9385 4.92297 17.2551 4.92297 16.4154C4.92297 15.5757 4.23962 14.8922 3.39989 14.8922H1.87671V12.523H3.39979C4.23952 12.523 4.92287 11.8396 4.92287 10.9999C4.92287 10.1602 4.23952 9.47682 3.39979 9.47682H1.87671V7.10759H3.39979C4.23952 7.10759 4.92287 6.42425 4.92287 5.58452C4.92287 4.74478 4.23952 4.06144 3.39979 4.06144H1.87671V2.70769C1.87671 1.21239 3.0891 0 4.5844 0H16.4306C17.9259 0 19.1383 1.21234 19.1383 2.70769ZM8.40429 8.02627C8.40429 9.46811 9.57333 10.6371 11.0152 10.6371C12.4571 10.6371 13.6261 9.46811 13.6261 8.02627C13.6261 6.58442 12.4571 5.41534 11.0152 5.41534C9.57338 5.41538 8.40429 6.58442 8.40429 8.02627ZM15.0767 14.4086C15.0767 12.8067 13.7777 11.5076 12.1757 11.5076H9.85495C8.25268 11.5076 6.95364 12.8067 6.95364 14.4086V15.5692H15.0767V14.4086Z" fill="white"/>
</svg>
