<svg width="102" height="102" viewBox="0 0 102 102" fill="none" xmlns="http://www.w3.org/2000/svg">
<path d="M73.5444 34.8174C75.1008 36.3738 75.1008 38.8967 73.5444 40.4523L46.8148 67.1826C45.2585 68.7383 42.7363 68.7383 41.1799 67.1826L28.4556 54.4575C26.8992 52.9019 26.8992 50.379 28.4556 48.8234C30.0112 47.267 32.5341 47.267 34.0898 48.8234L43.997 58.7306L67.9095 34.8174C69.4659 33.2617 71.9888 33.2617 73.5444 34.8174ZM102 51C102 79.1902 79.1863 102 51 102C22.8098 102 0 79.1863 0 51C0 22.8098 22.8137 0 51 0C79.1902 0 102 22.8137 102 51ZM94.0312 51C94.0312 27.2144 74.7825 7.96875 51 7.96875C27.2144 7.96875 7.96875 27.2175 7.96875 51C7.96875 74.7856 27.2175 94.0312 51 94.0312C74.7856 94.0312 94.0312 74.7825 94.0312 51Z" fill="url(#paint0_linear_70_285)"/>
<defs>
<linearGradient id="paint0_linear_70_285" x1="51" y1="0" x2="51" y2="102" gradientUnits="userSpaceOnUse">
<stop stop-color="#2F9356"/>
<stop offset="1" stop-color="#91FCBC"/>
</linearGradient>
</defs>
</svg>
