<svg width="45" height="29" viewBox="0 0 45 29" fill="none" xmlns="http://www.w3.org/2000/svg">
<path d="M44.4788 5.76263L44.4788 23.0906C44.4574 25.9517 42.1362 28.2611 39.2755 28.268L34.6659 28.268C33.9528 28.268 33.3749 27.6901 33.3749 26.977C33.3749 26.2638 33.9528 25.6855 34.6659 25.6855L39.2622 25.6855C40.6986 25.6831 41.8668 24.5266 41.8834 23.0906L41.8834 5.76263C41.8834 4.34239 40.6824 3.21936 39.2622 3.21936L5.87268 3.21937C5.19224 3.20927 4.53603 3.47054 4.04902 3.94503C3.56161 4.41993 3.28378 5.06967 3.27732 5.75011L3.27732 23.0906C3.28176 24.5221 4.44113 25.6811 5.87268 25.6855L10.3918 25.6855C11.1046 25.6855 11.6829 26.2638 11.6829 26.977C11.6829 27.6901 11.1046 28.268 10.3918 28.268L5.8852 28.268C3.03139 28.2551 0.721135 25.9444 0.707809 23.0906L0.707808 5.76263C0.719115 2.92175 3.03099 0.627239 5.87268 0.63693L39.2755 0.636929C42.116 0.636929 44.4788 2.92215 44.4788 5.76263V5.76263Z" fill="#2F9356"/>
</svg>
