<svg width="54" height="54" viewBox="0 0 54 54" fill="none" xmlns="http://www.w3.org/2000/svg">
<path d="M53.2074 15.9801L46.4574 9.2301C46.2804 9.05311 46.0549 8.93258 45.8094 8.88375C45.5639 8.83492 45.3094 8.85998 45.0782 8.95577C44.8469 9.05156 44.6493 9.21377 44.5102 9.42189C44.3711 9.63001 44.2969 9.87469 44.2969 10.125V12.2344H41.7656V5.0625C41.7643 3.83215 41.2749 2.65258 40.4049 1.78259C39.5349 0.912604 38.3554 0.423243 37.125 0.421875H16.875C15.6446 0.423243 14.4651 0.912604 13.5951 1.78259C12.7251 2.65258 12.2357 3.83215 12.2344 5.0625V32.4844H9.70312V30.375C9.7031 30.1247 9.62887 29.88 9.4898 29.6719C9.35073 29.4638 9.15307 29.3016 8.92182 29.2058C8.69056 29.11 8.43609 29.0849 8.19059 29.1337C7.9451 29.1826 7.71959 29.3031 7.54259 29.4801L0.792584 36.2301C0.555252 36.4674 0.421921 36.7893 0.421921 37.125C0.421921 37.4607 0.555252 37.7826 0.792584 38.0199L7.54259 44.7699C8.29416 45.5702 9.73845 44.9677 9.70312 43.875V41.7656H12.2344V48.9375C12.2357 50.1679 12.7251 51.3474 13.5951 52.2174C14.4651 53.0874 15.6446 53.5768 16.875 53.5781H37.125C38.3554 53.5768 39.5349 53.0874 40.4049 52.2174C41.2749 51.3474 41.7643 50.1679 41.7656 48.9375V21.5156H44.2969V23.625C44.2617 24.718 45.7058 25.32 46.4574 24.5199L53.2074 17.7699C53.4447 17.5326 53.5781 17.2106 53.5781 16.875C53.5781 16.5394 53.4447 16.2174 53.2074 15.9801ZM16.875 2.95312H37.125C37.6842 2.95377 38.2204 3.17621 38.6158 3.57166C39.0113 3.9671 39.2337 4.50326 39.2344 5.0625V7.17188H14.7656V5.0625C14.7663 4.50326 14.9887 3.9671 15.3841 3.57166C15.7796 3.17621 16.3157 2.95377 16.875 2.95312ZM37.125 51.0469H16.875C16.3157 51.0462 15.7796 50.8238 15.3841 50.4283C14.9887 50.0329 14.7663 49.4967 14.7656 48.9375V46.8281H39.2344V48.9375C39.2337 49.4967 39.0113 50.0329 38.6158 50.4283C38.2204 50.8238 37.6842 51.0462 37.125 51.0469ZM46.8281 20.5695V20.25C46.8281 19.9143 46.6948 19.5924 46.4574 19.3551C46.2201 19.1177 45.8982 18.9844 45.5625 18.9844H35.4375C35.1018 18.9844 34.7799 19.1177 34.5426 19.3551C34.3052 19.5924 34.1719 19.9143 34.1719 20.25C34.1719 20.5857 34.3052 20.9076 34.5426 21.1449C34.7799 21.3823 35.1018 21.5156 35.4375 21.5156H39.2344V44.2969H14.7656V41.7656H18.5625C18.8982 41.7656 19.2201 41.6323 19.4574 41.3949C19.6948 41.1576 19.8281 40.8357 19.8281 40.5C19.8281 40.1643 19.6948 39.8424 19.4574 39.6051C19.2201 39.3677 18.8982 39.2344 18.5625 39.2344H8.43749C8.10182 39.2344 7.77991 39.3677 7.54256 39.6051C7.30521 39.8424 7.17186 40.1643 7.17186 40.5V40.8195L3.4774 37.125L7.17186 33.4305V33.75C7.17186 34.0857 7.30521 34.4076 7.54256 34.6449C7.77991 34.8823 8.10182 35.0156 8.43749 35.0156H18.5625C18.8982 35.0156 19.2201 34.8823 19.4574 34.6449C19.6948 34.4076 19.8281 34.0857 19.8281 33.75C19.8281 33.4143 19.6948 33.0924 19.4574 32.8551C19.2201 32.6177 18.8982 32.4844 18.5625 32.4844H14.7656V9.70312H39.2344V12.2344H35.4375C35.1018 12.2344 34.7799 12.3677 34.5426 12.6051C34.3052 12.8424 34.1719 13.1643 34.1719 13.5C34.1719 13.8357 34.3052 14.1576 34.5426 14.3949C34.7799 14.6323 35.1018 14.7656 35.4375 14.7656H45.5625C45.8982 14.7656 46.2201 14.6323 46.4574 14.3949C46.6948 14.1576 46.8281 13.8357 46.8281 13.5V13.1805L50.5226 16.875L46.8281 20.5695Z" fill="#2F9356"/>
<path d="M25.3125 21.5156H29.5313C29.8668 21.516 30.1885 21.6494 30.4258 21.8867C30.6631 22.124 30.7965 22.4457 30.7969 22.7812C30.7969 23.1169 30.9302 23.4388 31.1676 23.6762C31.4049 23.9135 31.7268 24.0469 32.0625 24.0469C32.3982 24.0469 32.7201 23.9135 32.9574 23.6762C33.1948 23.4388 33.3281 23.1169 33.3281 22.7812C33.327 21.7746 32.9266 20.8095 32.2148 20.0977C31.503 19.3859 30.5379 18.9855 29.5313 18.9844H28.2656V16.875C28.2656 16.5393 28.1323 16.2174 27.8949 15.9801C27.6576 15.7427 27.3357 15.6094 27 15.6094C26.6643 15.6094 26.3424 15.7427 26.1051 15.9801C25.8677 16.2174 25.7344 16.5393 25.7344 16.875V18.9844H25.3125C24.0817 18.9844 22.9014 19.4733 22.0311 20.3436C21.1608 21.2139 20.6719 22.3942 20.6719 23.625C20.6719 24.8558 21.1608 26.0361 22.0311 26.9064C22.9014 27.7767 24.0817 28.2656 25.3125 28.2656H28.6875C29.2469 28.2656 29.7835 28.4879 30.1791 28.8834C30.5746 29.279 30.7969 29.8156 30.7969 30.375C30.7969 30.9344 30.5746 31.471 30.1791 31.8666C29.7835 32.2621 29.2469 32.4844 28.6875 32.4844H24.4688C24.1332 32.484 23.8115 32.3506 23.5742 32.1133C23.3369 31.876 23.2035 31.5543 23.2031 31.2188C23.2031 30.8831 23.0698 30.5612 22.8324 30.3238C22.5951 30.0865 22.2732 29.9531 21.9375 29.9531C21.6018 29.9531 21.2799 30.0865 21.0426 30.3238C20.8052 30.5612 20.6719 30.8831 20.6719 31.2188C20.673 32.2254 21.0734 33.1905 21.7852 33.9023C22.497 34.6141 23.4621 35.0145 24.4688 35.0156H25.7344V37.125C25.7344 37.4607 25.8677 37.7826 26.1051 38.0199C26.3424 38.2573 26.6643 38.3906 27 38.3906C27.3357 38.3906 27.6576 38.2573 27.8949 38.0199C28.1323 37.7826 28.2656 37.4607 28.2656 37.125V35.0156H28.6875C29.9183 35.0156 31.0986 34.5267 31.9689 33.6564C32.8392 32.7861 33.3281 31.6058 33.3281 30.375C33.3281 29.1442 32.8392 27.9639 31.9689 27.0936C31.0986 26.2233 29.9183 25.7344 28.6875 25.7344H25.3125C24.7531 25.7344 24.2165 25.5121 23.8209 25.1166C23.4254 24.721 23.2031 24.1844 23.2031 23.625C23.2031 23.0656 23.4254 22.529 23.8209 22.1334C24.2165 21.7379 24.7531 21.5156 25.3125 21.5156Z" fill="#2F9356"/>
</svg>
