<svg width="51" height="51" viewBox="0 0 51 51" fill="none" xmlns="http://www.w3.org/2000/svg">
<path d="M47.4788 44.2374L47.4788 26.9094C47.4574 24.0483 45.1362 21.7389 42.2755 21.732L37.6659 21.732C36.9528 21.732 36.3749 22.3099 36.3749 23.023C36.3749 23.7362 36.9528 24.3145 37.6659 24.3145L42.2622 24.3145C43.6986 24.3169 44.8668 25.4734 44.8834 26.9094L44.8834 44.2374C44.8834 45.6576 43.6824 46.7806 42.2622 46.7806L8.87268 46.7806C8.19224 46.7907 7.53603 46.5295 7.04902 46.055C6.56161 45.5801 6.28378 44.9303 6.27732 44.2499L6.27732 26.9094C6.28176 25.4779 7.44113 24.3189 8.87268 24.3145L13.3918 24.3145C14.1046 24.3145 14.6829 23.7362 14.6829 23.023C14.6829 22.3099 14.1046 21.732 13.3918 21.732L8.8852 21.732C6.03139 21.745 3.72113 24.0556 3.70781 26.9094L3.70781 44.2374C3.71912 47.0783 6.03099 49.3728 8.87268 49.3631L42.2755 49.3631C45.116 49.3631 47.4788 47.0779 47.4788 44.2374Z" fill="#2F9356"/>
<path d="M28.2016 33.4041L28.2016 2.84169C28.2016 2.12854 27.6233 1.55067 26.9102 1.55067C26.197 1.55067 25.6192 2.12854 25.6192 2.84169L25.6192 33.688L17.9623 27.0645C17.424 26.59 16.603 26.6425 16.129 27.1804C15.6549 27.7187 15.707 28.5401 16.2449 29.0141L25.8643 37.368C26.0791 37.6329 26.3909 37.8017 26.7301 37.8352C27.0701 37.8691 27.4093 37.7662 27.6718 37.5489C27.755 37.4815 27.8289 37.4031 27.8914 37.3163L36.2457 28.9495C36.4872 28.7085 36.6229 28.381 36.6229 28.0389C36.6229 27.6977 36.4872 27.3702 36.2457 27.1291C36.0123 26.8884 35.6925 26.7519 35.3573 26.7499C35.0225 26.7475 34.7003 26.8791 34.4636 27.1162L34.4507 27.1291L28.2016 33.4041Z" fill="#2F9356"/>
</svg>
