<svg width="51" height="51" viewBox="0 0 51 51" fill="none" xmlns="http://www.w3.org/2000/svg">
<path d="M47.4788 6.76263L47.4788 24.0906C47.4574 26.9517 45.1362 29.2611 42.2755 29.268L37.6659 29.268C36.9528 29.268 36.3749 28.6901 36.3749 27.977C36.3749 27.2638 36.9528 26.6855 37.6659 26.6855L42.2622 26.6855C43.6986 26.6831 44.8668 25.5266 44.8834 24.0906L44.8834 6.76263C44.8834 5.34239 43.6824 4.21936 42.2622 4.21936L8.87268 4.21937C8.19224 4.20927 7.53603 4.47054 7.04902 4.94503C6.56161 5.41993 6.28378 6.06967 6.27732 6.75011L6.27732 24.0906C6.28176 25.5221 7.44113 26.6811 8.87268 26.6855L13.3918 26.6855C14.1046 26.6855 14.6829 27.2638 14.6829 27.977C14.6829 28.6901 14.1046 29.268 13.3918 29.268L8.8852 29.268C6.03139 29.2551 3.72113 26.9444 3.70781 24.0906L3.70781 6.76263C3.71912 3.92175 6.03099 1.62724 8.87268 1.63693L42.2755 1.63693C45.116 1.63693 47.4788 3.92215 47.4788 6.76263Z" fill="#2F9356"/>
<path d="M28.2016 17.5959L28.2016 48.1583C28.2016 48.8715 27.6233 49.4493 26.9102 49.4493C26.197 49.4493 25.6191 48.8715 25.6191 48.1583L25.6191 17.312L17.9623 23.9355C17.424 24.41 16.603 24.3575 16.1289 23.8196C15.6549 23.2813 15.7069 22.46 16.2448 21.9859L25.8643 13.632C26.0791 13.3671 26.3908 13.1983 26.73 13.1648C27.0701 13.1309 27.4093 13.2338 27.6718 13.4511C27.7549 13.5185 27.8288 13.5969 27.8914 13.6837L36.2457 22.0505C36.4872 22.2916 36.6228 22.6191 36.6228 22.9611C36.6228 23.3023 36.4872 23.6298 36.2457 23.8709C36.0123 24.1116 35.6924 24.2481 35.3573 24.2501C35.0225 24.2525 34.7003 24.1209 34.4636 23.8838L34.4507 23.8709L28.2016 17.5959Z" fill="#2F9356"/>
</svg>
