<svg width="22" height="37" viewBox="0 0 22 37" fill="none" xmlns="http://www.w3.org/2000/svg">
<path d="M13.2016 4.59592L13.2016 35.1583C13.2016 35.8715 12.6233 36.4493 11.9102 36.4493C11.197 36.4493 10.6191 35.8715 10.6191 35.1583L10.6191 4.31204L2.96229 10.9355C2.424 11.41 1.60303 11.3575 1.12894 10.8196C0.654858 10.2813 0.706951 9.45995 1.24484 8.98586L10.8643 0.632016C11.0791 0.367109 11.3908 0.198312 11.73 0.164795C12.0701 0.130874 12.4093 0.233848 12.6718 0.451104C12.7549 0.518542 12.8288 0.596883 12.8914 0.683705L21.2457 9.05047C21.4872 9.29156 21.6228 9.61905 21.6228 9.96109C21.6228 10.3023 21.4872 10.6298 21.2457 10.8709C21.0123 11.1116 20.6924 11.2481 20.3573 11.2501C20.0225 11.2525 19.7003 11.1209 19.4636 10.8838L19.4507 10.8709L13.2016 4.59592Z" fill="#2F9356"/>
</svg>
