<svg width="50" height="50" viewBox="0 0 50 50" fill="none" xmlns="http://www.w3.org/2000/svg">
<path d="M43.3258 9.16667C43.3278 8.94677 43.2427 8.735 43.0892 8.5775L34.7558 0.244167C34.5991 0.0895833 34.3868 0.004375 34.1667 0.0075V0H9.16667C7.78594 0 6.66667 1.11927 6.66667 2.5V47.5C6.66667 48.8807 7.78594 50 9.16667 50H40.8333C42.2141 50 43.3333 48.8807 43.3333 47.5V9.16667H43.3258ZM35 2.845L40.4883 8.33333H35.8333C35.3731 8.33333 35 7.96021 35 7.5V2.845ZM41.6667 47.5C41.6667 47.9602 41.2935 48.3333 40.8333 48.3333H9.16667C8.70646 48.3333 8.33334 47.9602 8.33334 47.5V2.5C8.33334 2.03979 8.70646 1.66667 9.16667 1.66667H33.3333V7.5C33.3333 8.88073 34.4526 10 35.8333 10H41.6667V47.5Z" fill="#2F9356"/>
<path d="M15 22.5C13.6193 22.5 12.5 23.6193 12.5 25C12.5 26.3807 13.6193 27.5 15 27.5C16.3807 27.5 17.5 26.3807 17.5 25C17.5 23.6193 16.3807 22.5 15 22.5ZM15 25.8333C14.5398 25.8333 14.1667 25.4602 14.1667 25C14.1667 24.5398 14.5398 24.1667 15 24.1667C15.4602 24.1667 15.8333 24.5398 15.8333 25C15.8333 25.4602 15.4602 25.8333 15 25.8333Z" fill="#2F9356"/>
<path d="M37.5 24.1667H20.8333V25.8333H37.5V24.1667Z" fill="#2F9356"/>
<path d="M15 14.1667C13.6193 14.1667 12.5 15.2859 12.5 16.6667C12.5 18.0474 13.6193 19.1667 15 19.1667C16.3807 19.1667 17.5 18.0474 17.5 16.6667C17.5 15.2859 16.3807 14.1667 15 14.1667ZM15 17.5C14.5398 17.5 14.1667 17.1269 14.1667 16.6667C14.1667 16.2064 14.5398 15.8333 15 15.8333C15.4602 15.8333 15.8333 16.2064 15.8333 16.6667C15.8333 17.1269 15.4602 17.5 15 17.5Z" fill="#2F9356"/>
<path d="M37.5 15.8333H20.8333V17.5H37.5V15.8333Z" fill="#2F9356"/>
<path d="M15 30.8333C13.6193 30.8333 12.5 31.9526 12.5 33.3333C12.5 34.714 13.6193 35.8333 15 35.8333C16.3807 35.8333 17.5 34.714 17.5 33.3333C17.5 31.9526 16.3807 30.8333 15 30.8333ZM15 34.1667C14.5398 34.1667 14.1667 33.7935 14.1667 33.3333C14.1667 32.8731 14.5398 32.5 15 32.5C15.4602 32.5 15.8333 32.8731 15.8333 33.3333C15.8333 33.7935 15.4602 34.1667 15 34.1667Z" fill="#2F9356"/>
<path d="M37.5 32.5H20.8333V34.1667H37.5V32.5Z" fill="#2F9356"/>
<path d="M15 39.1667C13.6193 39.1667 12.5 40.2859 12.5 41.6667C12.5 43.0474 13.6193 44.1667 15 44.1667C16.3807 44.1667 17.5 43.0474 17.5 41.6667C17.5 40.2859 16.3807 39.1667 15 39.1667ZM15 42.5C14.5398 42.5 14.1667 42.1269 14.1667 41.6667C14.1667 41.2065 14.5398 40.8333 15 40.8333C15.4602 40.8333 15.8333 41.2065 15.8333 41.6667C15.8333 42.1269 15.4602 42.5 15 42.5Z" fill="#2F9356"/>
<path d="M37.5 40.8333H20.8333V42.5H37.5V40.8333Z" fill="#2F9356"/>
</svg>
